# xmcd
#
# Track frame offsets:
#	150
#	15892
#	30857
#	47505
#	62757
#	77752
#	92912
#	108285
#	122135
#
# Disc length: 1828
#
# Revision: 2
# Processed by: cddbd v1.5.1PL0 Copyright (c) Steve Scherf et al.
# Submitted via: CDex 1.40Release
# Normalized: r0:DSETVAR1,TDELIM( - ),TSWAP
#
DISCID=5e072209
DTITLE=Various Artist - Country Tales
DYEAR=1999
DGENRE=Country
TTITLE0=Holly Dunn - Daddy's Hands
TTITLE1=Alan Jackson - Home
TTITLE2=Kathy Mattea - Love At The Five And Dime
TTITLE3=Michael Martin Murphy - A Long Line of Love
TTITLE4=Emmylou Harris - The Boxer
TTITLE5=The Nitty Gritty Dirt Band - The Long Hard Road (The Sharecropper's Dream)
TTITLE6=Reba McEntire - Whoever's In New England
TTITLE7=John Schneider - At the Sound of the Tone
TTITLE8=Nanci Griffith - Trouble In These Fields
EXTD=YEAR: 1999 ID3G: 2
EXTT0=
EXTT1=
EXTT2=
EXTT3=
EXTT4=
EXTT5=
EXTT6=
EXTT7=
EXTT8=
PLAYORDER=
